<svg
  viewBox="0 0 1253 1253"
  xmlns="http://www.w3.org/2000/svg"
  xmlns:xlink="http://www.w3.org/1999/xlink"
  xml:space="preserve"
  style="fill:none;fill-rule:evenodd;clip-rule:evenodd;stroke-linejoin:round;stroke-miterlimit:2; width:100%; height:100%; display:block;"
  width="100%"
  height="100%"
  preserveAspectRatio="none"
>
  <rect id="Artboard2" x="-217.368" y="-557.23" style="fill:none;" />
  <g id="Layer1">
    <path d="M0,781.801l307.683,-83.218c37.592,138.991 163.698,235.52 307.683,235.52c175.916,0 318.738,-142.822 318.738,-318.738c0,-143.985 -96.53,-270.091 -235.52,-307.683l83.218,-307.683c277.981,75.185 471.04,327.397 471.04,615.366c0,351.833 -285.644,637.476 -637.476,637.476c-287.969,0 -540.181,-193.059 -615.366,-471.041Z" style="fill:currentColor;" />
    <path d="M821.001,524.257c16.076,30.529 25.176,65.292 25.176,102.164c0,36.872 -9.101,71.635 -25.176,102.164l0,-204.329Zm-22,238.16c-6.154,7.796 -12.824,15.166 -19.959,22.057l0,-316.107c7.135,6.892 13.805,14.261 19.959,22.057l0,271.992Zm-41.959,40.695c-6.526,4.834 -13.328,9.316 -20.379,13.416l0,-380.214c7.051,4.1 13.853,8.582 20.379,13.416l0,353.382Zm-42.379,24.604c-5.379,2.364 -10.87,4.518 -16.463,6.453l0,-415.494c5.593,1.935 11.084,4.089 16.463,6.453l0,402.589Zm-38.463,12.79c-15.997,3.71 -32.66,5.672 -49.779,5.672c-121.287,0 -219.756,-98.469 -219.756,-219.756c0,-121.287 98.469,-219.756 219.756,-219.756c17.118,0 33.782,1.962 49.779,5.672l0,428.168Z" style="fill:currentColor;" />
  </g>
</svg>